<?xml version="1.0" standalone="no"?>
<svg xmlns:xlink="http://www.w3.org/1999/xlink" id="wave" style="transform:rotate(0deg); transition: 0.3s" viewBox="0 0 1440 100" version="1.1" xmlns="http://www.w3.org/2000/svg"><defs><linearGradient id="sw-gradient-0" x1="0" x2="0" y1="1" y2="0"><stop stop-color="rgba(126.464, 200.784, 188.196, 1)" offset="0%"/><stop stop-color="rgba(33.73, 82.942, 84.668, 1)" offset="100%"/></linearGradient></defs><path style="transform:translate(0, 0px); opacity:1" fill="url(#sw-gradient-0)" d="M0,30L40,31.7C80,33,160,37,240,38.3C320,40,400,40,480,48.3C560,57,640,73,720,75C800,77,880,63,960,58.3C1040,53,1120,57,1200,48.3C1280,40,1360,20,1440,23.3C1520,27,1600,53,1680,56.7C1760,60,1840,40,1920,31.7C2000,23,2080,27,2160,35C2240,43,2320,57,2400,60C2480,63,2560,57,2640,55C2720,53,2800,57,2880,50C2960,43,3040,27,3120,25C3200,23,3280,37,3360,41.7C3440,47,3520,43,3600,36.7C3680,30,3760,20,3840,25C3920,30,4000,50,4080,60C4160,70,4240,70,4320,71.7C4400,73,4480,77,4560,71.7C4640,67,4720,53,4800,40C4880,27,4960,13,5040,11.7C5120,10,5200,20,5280,33.3C5360,47,5440,63,5520,63.3C5600,63,5680,47,5720,38.3L5760,30L5760,100L5720,100C5680,100,5600,100,5520,100C5440,100,5360,100,5280,100C5200,100,5120,100,5040,100C4960,100,4880,100,4800,100C4720,100,4640,100,4560,100C4480,100,4400,100,4320,100C4240,100,4160,100,4080,100C4000,100,3920,100,3840,100C3760,100,3680,100,3600,100C3520,100,3440,100,3360,100C3280,100,3200,100,3120,100C3040,100,2960,100,2880,100C2800,100,2720,100,2640,100C2560,100,2480,100,2400,100C2320,100,2240,100,2160,100C2080,100,2000,100,1920,100C1840,100,1760,100,1680,100C1600,100,1520,100,1440,100C1360,100,1280,100,1200,100C1120,100,1040,100,960,100C880,100,800,100,720,100C640,100,560,100,480,100C400,100,320,100,240,100C160,100,80,100,40,100L0,100Z"/></svg>